<?xml version="1.0" encoding="UTF-8"?>
<!DOCTYPE svg PUBLIC "-//W3C//DTD SVG 1.1//EN" "http://www.w3.org/Graphics/SVG/1.1/DTD/svg11.dtd">
<!-- Creator: CorelDRAW 2018 (64-Bit) -->
<svg xmlns="http://www.w3.org/2000/svg" xml:space="preserve" width="5.82677in" height="8.26772in" version="1.1" style="shape-rendering:geometricPrecision; text-rendering:geometricPrecision; image-rendering:optimizeQuality; fill-rule:evenodd; clip-rule:evenodd"
viewBox="0 0 5826.77 8267.72"
 xmlns:xlink="http://www.w3.org/1999/xlink">
 <defs>
  <style type="text/css">
   <![CDATA[
    .str0 {stroke:#332C2B;stroke-width:27.78;stroke-miterlimit:2.61313}
    .fil0 {fill:none}
    .fil1 {fill:#FEFEFE}
   ]]>
  </style>
 </defs>
 <g id="Layer_x0020_1">
  <metadata id="CorelCorpID_0Corel-Layer"/>

  <!-- 
    Red     #e74c3c
    Green   #2ecc71
    Yellow  #f1c40f
  -->
  
  <rect class="fil0 str0" transform="matrix(0.903423 -0.0618799 0.0707078 0.990464 2153.32 1048.52)" width="3209.05" height="5710.59" rx="91.69" ry="91.69"/>
  <path id="pathB01" fill="#FEFEFE" class="str0" d="M2317.46 1109.48l1296.05 -90.63 54.93 785.48 -1374.59 96.12 -49.43 -706.93c-3.02,-43.2 29.85,-81.02 73.06,-84.04z"/>
  <path id="pathC01" fill="#FEFEFE" class="str0" d="M4911.76 928.07l-1296.05 90.63 54.93 785.48 1374.59 -96.12 -49.43 -706.93c-3.02,-43.2 -40.84,-76.07 -84.04,-73.06z"/>
  <path id="pathB07" fill="#FEFEFE" class="str0" d="M2702.09 6610.1l1296.05 -90.63 -54.93 -785.48 -1374.6 96.12 49.43 706.93c3.02,43.2 40.84,76.07 84.04,73.06z"/>
  <path id="pathC07" fill="#FEFEFE" class="str0" d="M5296.4 6428.69l-1296.05 90.63 -54.93 -785.48 1374.6 -96.12 49.43 706.93c3.02,43.2 -29.85,81.02 -73.06,84.04z"/>
  <rect id="rectB06" fill="#FEFEFE" class="str0" transform="matrix(1.15994 -0.0811108 -0.058199 -0.832285 2568.62 5830)" width="1185.06" height="943.76"/>
  <rect id="rectC06" fill="#FEFEFE" class="str0" transform="matrix(-1.15994 0.0811108 -0.058199 -0.832285 5320.02 5637.6)" width="1185.06" height="943.76"/>
  <rect id="rectB05" fill="#FEFEFE" class="str0" transform="matrix(1.15994 -0.0811108 -0.058199 -0.832285 2513.69 5044.52)" width="1185.06" height="943.76"/>
  <rect id="rectC05" fill="#FEFEFE" class="str0" transform="matrix(-1.15994 0.0811108 -0.058199 -0.832285 5265.09 4852.12)" width="1185.06" height="943.76"/>
  <rect id="rectB04" fill="#FEFEFE" class="str0" transform="matrix(1.15994 -0.0811108 -0.058199 -0.832285 2458.76 4259.03)" width="1185.06" height="943.76"/>
  <rect id="rectC04" fill="#FEFEFE" class="str0" transform="matrix(-1.15994 0.0811108 -0.058199 -0.832285 5210.16 4066.64)" width="1185.06" height="943.76"/>
  <rect id="rectB03" fill="#FEFEFE" class="str0" transform="matrix(1.15994 -0.0811108 -0.058199 -0.832285 2403.84 3473.55)" width="1185.06" height="943.76"/>
  <rect id="rectC03" fill="#FEFEFE" class="str0" transform="matrix(-1.15994 0.0811108 -0.058199 -0.832285 5155.24 3281.15)" width="1185.06" height="943.76"/>
  <rect id="rectB02" fill="#FEFEFE" class="str0" transform="matrix(1.15994 -0.0811108 -0.058199 -0.832285 2348.91 2688.07)" width="1185.06" height="943.76"/>
  <rect id="rectC02" fill="#FEFEFE" class="str0" transform="matrix(-1.15994 0.0811108 -0.058199 -0.832285 5100.31 2495.67)" width="1185.06" height="943.76"/>
  <rect id="rectA03" fill="#FEFEFE" class="str0" transform="matrix(1.15994 -0.0811108 -0.058199 -0.832285 991.583 7323.55)" width="1185.06" height="943.76"/>
  <rect id="rectA02" fill="#FEFEFE" class="str0" transform="matrix(1.15994 -0.0811108 -0.058199 -0.832285 936.653 6537.95)" width="1185.06" height="943.76"/>
  <path id="pathA01" fill="#FEFEFE" class="str0" d="M881.73 5752.47c412.9,-28.87 816.51,-57.43 1230.34,-76.72 189.56,-8.83 151.81,28.81 141.63,-153.09 -8.57,-153.17 -18.68,-307.16 -30.38,-460.1 -316.13,-0.34 -394.31,-146.31 -687.22,-217.94 -258.48,-63.2 -488.41,-263.23 -740.8,-216.65 27.52,374.57 60.38,749.81 86.42,1124.5z"/>
  <path class="fil0 str0" d="M939.03 7397.05l1497.62 -104.72 -115.03 -1645c4.06,-21.4 -5.37,-63.15 -9.97,-144.85 -9.56,-169.79 -20.77,-340.48 -33.72,-510.01 -342.69,-0.92 -427.7,-162.84 -745.34,-242.73 -280.31,-70.5 -529.91,-292.59 -803.42,-241.39 29.65,403.91 64.77,808.55 93.24,1212.61l-0.57 0.04 117.2 1676.04z"/>

 </g>
</svg>
