<?xml version="1.0" encoding="UTF-8" standalone="no"?>
<!-- Generator: Adobe Illustrator 19.0.0, SVG Export Plug-In . SVG Version: 6.00 Build 0)  -->

<svg
   xmlns:dc="http://purl.org/dc/elements/1.1/"
   xmlns:cc="http://creativecommons.org/ns#"
   xmlns:rdf="http://www.w3.org/1999/02/22-rdf-syntax-ns#"
   xmlns:svg="http://www.w3.org/2000/svg"
   xmlns="http://www.w3.org/2000/svg"
   xmlns:sodipodi="http://sodipodi.sourceforge.net/DTD/sodipodi-0.dtd"
   xmlns:inkscape="http://www.inkscape.org/namespaces/inkscape"
   version="1.1"
   id="Layer_1"
   x="0px"
   y="0px"
   viewBox="0 0 43.400002 65"
   xml:space="preserve"
   inkscape:version="0.91 r13725"
   sodipodi:docname="Map-marker-02.svg"
   width="43.400002"
   height="65"><metadata
     id="metadata12"><rdf:RDF><cc:Work
         rdf:about=""><dc:format>image/svg+xml</dc:format><dc:type
           rdf:resource="http://purl.org/dc/dcmitype/StillImage" /><dc:title></dc:title></cc:Work></rdf:RDF></metadata><defs
     id="defs10" /><sodipodi:namedview
     pagecolor="#ffffff"
     bordercolor="#666666"
     borderopacity="1"
     objecttolerance="10"
     gridtolerance="10"
     guidetolerance="10"
     inkscape:pageopacity="0"
     inkscape:pageshadow="2"
     inkscape:window-width="722"
     inkscape:window-height="480"
     id="namedview8"
     showgrid="false"
     fit-margin-top="0"
     fit-margin-left="0"
     fit-margin-right="0"
     fit-margin-bottom="0"
     inkscape:zoom="2.4583333"
     inkscape:cx="-2.5217763"
     inkscape:cy="32.5"
     inkscape:window-x="0"
     inkscape:window-y="0"
     inkscape:window-maximized="0"
     inkscape:current-layer="Layer_1" /><style
     type="text/css"
     id="style3">
	.st0{fill:#E74C3C;}
	.st1{fill:#C0392B;}
</style><g
     id="XMLID_1_"
     transform="translate(-26.3,-15.5)"><path
       id="XMLID_5_"
       class="st0"
       d="m 48,15.5 c -12,0 -21.7,9.7 -21.7,21.7 0,3.8 1,7.4 2.8,10.6 0.3,0.5 0.6,1 0.9,1.5 L 48,80.5 65.9,49.3 c 0.3,-0.4 0.5,-0.8 0.8,-1.3 l 0.2,-0.3 C 68.7,44.6 69.7,41 69.7,37.1 69.7,25.2 60,15.5 48,15.5 Z m 0,10.8 c 6,0 10.8,4.9 10.8,10.8 C 58.8,43.1 54,48 48,48 42,48 37.2,43.1 37.2,37.2 37.2,31.2 42,26.3 48,26.3 Z"
       inkscape:connector-curvature="0"
       style="fill:#e74c3c" /><path
       id="XMLID_8_"
       class="st1"
       d="m 48,23.6 c -7.5,0 -13.5,6.1 -13.5,13.5 0,7.5 6.1,13.5 13.5,13.5 7.5,0 13.5,-6.1 13.5,-13.5 0,-7.4 -6,-13.5 -13.5,-13.5 z m 0,5.4 c 4.5,0 8.1,3.6 8.1,8.1 0,4.5 -3.6,8.1 -8.1,8.1 -4.5,0 -8.1,-3.6 -8.1,-8.1 0,-4.5 3.6,-8.1 8.1,-8.1 z"
       inkscape:connector-curvature="0"
       style="fill:#c0392b" /></g></svg>